<svg xmlns="http://www.w3.org/2000/svg" viewBox="0 0 963.59523 980.68443"><path d="M981.79761,496.11064A493.00176,493.00176,0,0,1,970.8314,599.82386L352.1038,959.07562c-91.95507-29.82756-174.23035-88.63147-232.9825-165.59923,87.10856,92.79751,257.16507,23.094,252.64634-106.99363C358.308,447.64181,6.61618,520.12117,86.43758,745.02714-105.7105,438.1844,132.45086,2.80184,495.33093,9.73968,394.41962,11.28516,305.16875,79.50013,274.292,173.43663c-12.36762,1.38731-44.26382-4.57507-53.13723,7.05493-14.93624,14.05205-3.90454,41.83843,16.85464,41.10478l25.55487.00059a245.31536,245.31536,0,0,0-1.43031,40.93626H159.33849a24.08137,24.08137,0,0,0,0,48.1603H269.35721a239.79657,239.79657,0,0,0,25.79424,62.60839H227.13774a24.08137,24.08137,0,0,0,0,48.1603H332.38858c76.786,81.5429,218.75833,93.079,307.64736,24.08015,12.20016-2.68128,142.97175,7.033,148.49589-7.05214,14.9212-14.05527,3.92977-41.84267-16.85558-41.10757l-82.53107-.00059a240.69732,240.69732,0,0,0,46.82046-110.76869H845.91306a24.08137,24.08137,0,0,0,0-48.1603H738.34958a243.01844,243.01844,0,0,0-12.158-65.01641h50.58727a24.08136,24.08136,0,0,0,0-48.16029h-72.877C663.20782,57.12964,587.6192,10.969,504.98585,9.71572,768.74481,12.29217,981.79761,229.08583,981.79761,496.11064Z" transform="translate(-18.20239 -9.65778)" style="fill:#002e3e"/><path d="M349.52641,697.97378c-16.03629,131.67212-192.7152,156.98233-247.10684,36.17191C50.50536,617.31407,193.77954,502.925,296.05268,578.655c-66.84263-36.53929-154.96883,16.31444-152.96519,93.19582C142.03319,793.53876,321.12523,814.63552,349.52641,697.97378Z" transform="translate(-18.20239 -9.65778)" style="fill:#002e3e"/><path d="M371.48026,970.55446a466.14556,466.14556,0,0,0,97.91084,18.33221l123.39109-73.26454c5.07155-3.19126,12.219.64529,12.228,6.59671,7.08583,5.47567-105.60288,65.26365-106.85314,68.04166a469.996,469.996,0,0,0,161.81732-25.62866c-37.60064-60.30389,34.39921-132.39646,96.03934-98.04157.89582-.617,151.74032-103.21182,152.51757-103.74214A452.5152,452.5152,0,0,0,937.99691,704.006c-.11632.11757-105.98163,73.48119-106.20131,73.66293a10.68681,10.68681,0,0,1-14.2983-1.82647,8.96608,8.96608,0,0,1,2.10013-13.19355c.18509-.12557,129.92654-90.13095,130.09933-90.24258a444.45181,444.45181,0,0,0,13.61735-51.70148ZM689.83341,830.12513,466.801,962.51206a8.81665,8.81665,0,0,1-11.98726-2.89811A8.50323,8.50323,0,0,1,457.772,947.84L680.80368,815.41576C690.17017,809.60442,699.765,824.36767,689.83341,830.12513Z" transform="translate(-18.20239 -9.65778)" style="fill:#002e3e"/><path d="M894.77092,789.03984a436.78957,436.78957,0,0,1-169.58985,159.28,436.22544,436.22544,0,0,0,66.16814-48.06847,67.24306,67.24306,0,0,0-20.12478-21.30273Z" transform="translate(-18.20239 -9.65778)" style="fill:#002e3e"/><path d="M618.212,281.42162h97.06779a216.87661,216.87661,0,0,1-51.36382,108.482c-13.31893,2.05609-72.50149-5.87153-81.5738,6.90786-16.99673,17.62117-.45607,44.14557,22.85194,40.25825-73.97243,43.40333-181.326,32.43639-244.60351-23.58306,13.09374-2.41854,102.15425,6.51406,110.10932-6.90708,14.02468-12.98967,4.94071-38.95409-14.26867-40.14063-2.75365-.4264-135.36564.0587-138.10145-.1184a215.9264,215.9264,0,0,1-28.06374-61.31594c21.05571-2.03078,65.114,9.89466,66.03208-23.583A23.60994,23.60994,0,0,0,332.857,257.8386l-50.34986,0a218.641,218.641,0,0,1,1.48574-40.0912c12.12021-2.598,137.546,6.84139,143.22-6.90663,14.02424-12.99012,4.94079-38.95454-14.2688-40.14108-2.61309-.39134-114.71284.03342-117.34839-.1184,51.03469-161.89934,295.9286-191.93309,384.80479-47.1661-13.13242,2.4654-106.3826-6.59494-114.23637,6.907-14.02471,12.98976-4.94033,38.95421,14.26868,40.14073,2.78277.39132,121.50111-.03339,124.30542.1184a217.02866,217.02866,0,0,1,13.08857,63.67425c-13.13125,2.48521-108.52157-6.62818-116.28808,6.90693C586.68935,254.92157,597.8395,282.24464,618.212,281.42162Z" transform="translate(-18.20239 -9.65778)" style="fill:#002e3e"/></svg>